<?xml version="1.0" encoding="UTF-8"?><svg version="1.1" width="24px" height="24px" viewBox="0 0 24.0 24.0" xmlns="http://www.w3.org/2000/svg" xmlns:xlink="http://www.w3.org/1999/xlink"><defs><clipPath id="i0"><path d="M2.76802391,0.146178142 C3.37729772,-0.349873294 2.76802391,0.146178142 7.5,5.96528206 L7.95099461,6.51543825 C12.1153341,11.5535384 12.8781483,11.2947814 12.0852499,11.9014236 L11.7576982,12.1404197 C10.5482088,12.975936 9.08125084,13.4652821 7.5,13.4652821 C3.35786438,13.4652821 0,10.1074177 0,5.96528206 C0,3.61733977 1.07892029,1.5213928 2.76802391,0.146178142 Z"></path></clipPath><clipPath id="i1"><path d="M2,0 C3.1045695,0 4,0.8954305 4,2 C4,3.1045695 3.1045695,4 2,4 C0.8954305,4 0,3.1045695 0,2 C0,0.8954305 0.8954305,0 2,0 Z"></path></clipPath></defs><g transform="translate(2.999999999999991 1.0)"><g transform="translate(0.0 3.534717935099792)"><g transform="translate(0.0 17.965282064900215)"><path d="M0,0.5 L10,0.5" stroke="#000000" stroke-width="2" fill="none" stroke-linecap="round" stroke-miterlimit="10"></path></g><g transform="translate(4.5 10.965282064900215)"><path d="M0.5,7.5 L0.5,0" stroke="#000000" stroke-width="2" fill="none" stroke-linecap="square" stroke-miterlimit="10"></path></g><g clip-path="url(#i0)"><polygon points="0,-1.77635684e-15 12.3631576,-1.77635684e-15 12.3631576,13.4652821 0,13.4652821 0,-1.77635684e-15" stroke="none" fill="#000000"></polygon></g><g transform="translate(9.0 1.7152820649002152)"><g clip-path="url(#i1)"><polygon points="0,0 4,0 4,4 0,4 0,0" stroke="none" fill="#000000"></polygon></g></g><g transform="translate(4.0 3.465282064900215)"><path d="M5.5,0.5 L0.5,1.5" stroke="#000000" stroke-width="1" fill="none" stroke-linecap="square" stroke-miterlimit="10"></path></g><g transform="translate(8.5 3.465282064900215)"><path d="M3,0 L0,5.5" stroke="#000000" stroke-width="1" fill="none" stroke-linecap="square" stroke-miterlimit="10"></path></g></g><g transform="translate(13.0 3.0)"><path d="M3,3 C3,1.34314575 1.65685425,0 0,0" stroke="#000000" stroke-width="1.5" fill="none" stroke-miterlimit="10"></path></g><g transform="translate(12.0 0.0)"><path d="M7,7 C7,3.13400675 3.86599325,0 0,0" stroke="#000000" stroke-width="1.5" fill="none" stroke-miterlimit="10"></path></g></g></svg>