<?xml version="1.0" encoding="UTF-8"?><svg version="1.1" width="111px" height="150px" viewBox="0 0 111.0 150.0" xmlns="http://www.w3.org/2000/svg" xmlns:xlink="http://www.w3.org/1999/xlink"><defs><clipPath id="i0"><path d="M54.420052,0 L54.4846747,0.080075879 C56.5814179,2.68223694 109,68.033996 109,97.8072649 C109,129.54872 79.705421,150 54.420052,150 C29.134683,150 1.57778259e-15,133.266639 0,97.8072649 C0,62.6352838 54.420052,0 54.420052,0 Z"></path></clipPath><clipPath id="i1"><path d="M150,0 L150,150 L0,150 L0,0 L150,0 Z"></path></clipPath><clipPath id="i2"><path d="M42.9996269,0 C50.2677627,0 56.1749292,5.88419469 56.1759008,13.1042214 C56.1759008,18.6586655 52.6704365,23.3898472 47.7540636,25.2976482 L47.7540636,30.589249 L57.8582782,30.5889267 C58.7069294,29.7445608 59.873234,29.2228174 61.1616748,29.2228174 C63.726948,29.2228174 65.82026,31.298835 65.82026,33.8569796 C65.82026,36.4154543 63.726948,38.4843768 61.1616748,38.4843768 C59.873234,38.4843768 58.7078415,37.9684249 57.8582782,37.124125 L47.7532345,37.124125 L47.7532345,81.0163367 C58.6493024,80.2697161 68.2172125,76.465664 73.5096121,67.8032159 L69.8172538,66.7339399 L81.9960412,55.1452344 L86,71.4397204 L81.8351001,70.2279676 C75.0657905,82.8858667 61.3961629,92.9349664 46.0317204,93.9597752 L43.531288,99 L41.0240564,93.9469053 C24.8677606,92.8826617 10.5718641,81.8681528 4.29449848,68.1913849 L0,69.1388092 L5.06570561,53.1545301 L16.4534689,65.5104809 L12.7740456,66.3222596 C17.8004487,75.6990708 27.8217467,80.1401842 39.3073515,80.9906716 L39.3073515,37.1240348 L28.1335131,37.1240348 C27.291661,37.9683429 26.1253564,38.4842866 24.8359206,38.4842866 C22.2706474,38.4842866 20.1783304,36.415034 20.1783304,33.8568894 C20.1783304,31.2987447 22.2706474,29.2227272 24.8359206,29.2227272 C26.125688,29.2227272 27.2917439,29.7445365 28.1335131,30.5888365 L39.3073515,30.5888365 L39.3073515,25.6259962 C33.846963,24.0279808 29.8241821,19.0452582 29.8241821,13.1033964 C29.8241821,5.88452469 35.731491,0 42.9996269,0 Z M42.9997098,6.38670693 C39.2742678,6.38670693 36.2426718,9.39595888 36.2426718,13.1026616 C36.2426718,16.8080444 39.2745995,19.8247213 42.9997098,19.8247213 C46.7241568,19.8247213 49.7557528,16.8080444 49.7557528,13.1026616 C49.7557528,9.39727887 46.7238251,6.38670693 42.9997098,6.38670693 Z"></path></clipPath></defs><g transform="translate(2.0 150.0) scale(1.0 -1.0)"><g clip-path="url(#i0)"><polygon points="0,0 109,0 109,150 0,150 0,0" stroke="none" fill="#000000"></polygon><g transform="translate(-2.0 150.0) scale(1.0 -1.0)"><g clip-path="url(#i1)"><polygon points="2,0 111,0 111,150 2,150 2,0" stroke="none" fill="#5856D6"></polygon></g><g transform="translate(13.0 7.0)"><g clip-path="url(#i2)"><polygon points="0,0 86,0 86,99 0,99 0,0" stroke="none" fill="#FFFFFF"></polygon></g></g></g></g></g></svg>