<?xml version="1.0" encoding="UTF-8"?>
<svg width="1200pt" height="1200pt" version="1.1" viewBox="0 0 1200 1200" xmlns="http://www.w3.org/2000/svg">
 <path d="m1070.3 668.44-146.88 140.47 44.531 12.961c-63.828 105-179.22 151.11-310.63 160.16v-532.03h121.87c10.246 10.234 24.301 16.488 39.84 16.488 30.938 0 56.184-25.078 56.184-56.09 0-31.008-25.246-56.172-56.184-56.172-15.539 0-29.605 6.3242-39.84 16.559l-121.86 0.003906v-64.141c59.293-23.125 101.57-80.473 101.57-147.8-0.011718-87.516-71.254-158.84-158.91-158.84s-158.9 71.328-158.9 158.83c0 72.023 48.516 132.42 114.37 151.79v60.156h-134.76c-10.152-10.234-24.215-16.559-39.77-16.559-30.938 0-56.172 25.164-56.172 56.172s25.234 56.09 56.172 56.09c15.551 0 29.617-6.2539 39.77-16.488h134.76v531.72c-138.52-10.309-259.38-64.141-320-177.8l44.375-9.8398-137.34-149.77-61.094 193.75 51.793-11.484c75.707 165.78 248.12 299.29 442.97 312.19l30.238 61.25 30.156-61.094c185.3-12.422 350.16-134.23 431.8-287.66l50.23 14.688zm-551.8-509.61c0-44.93 36.562-81.406 81.492-81.406 44.914 0 81.48 36.492 81.48 81.406 0 44.914-36.562 81.48-81.48 81.48-44.926 0-81.492-36.566-81.492-81.48z"/>
</svg>
