<?xml version="1.0" encoding="UTF-8"?>
<svg width="512px" height="512px" viewBox="0 0 512 512" version="1.1" xmlns="http://www.w3.org/2000/svg" xmlns:xlink="http://www.w3.org/1999/xlink">
    <title>Icon</title>
    <defs>
        <linearGradient x1="50%" y1="34.7917557%" x2="50%" y2="100%" id="linearGradient-1">
            <stop stop-color="#31C1CA" offset="0%"></stop>
            <stop stop-color="#2E8BE1" offset="100%"></stop>
        </linearGradient>
    </defs>
    <g id="Icon" stroke="none" stroke-width="1" fill="none" fill-rule="evenodd">
        <rect id="Background" fill-opacity="0" fill="#000000" x="0" y="0" width="512" height="512"></rect>
        <g id="marlin" transform="translate(255.5, 256) scale(-1, 1) translate(-255.5, -256)translate(80, 32)">
            <g id="Group" transform="translate(175.5, 224) scale(-1, 1) rotate(-180) translate(-175.5, -224)translate(0, 0)" fill="url(#linearGradient-1)" fill-rule="nonzero">
                <path d="M0.0375516344,447.827904 C2.29610165,444.168457 9.59295555,438.417897 49.0307135,409.839358 C86.0361869,382.829154 99.9349562,370.979516 97.5026716,368.539885 C96.8077331,367.842847 90.7270215,368.191366 83.9513715,369.411181 C69.8788675,371.850813 54.5902213,372.199332 54.5902213,370.108219 C54.5902213,369.236922 57.891179,367.668588 61.8870752,366.448772 C81.8665561,360.349694 125.126476,335.604861 135.724287,324.103742 L139.546449,319.921517 L132.597064,309.640213 C125.30021,299.010391 114.528664,278.622043 109.49036,266.075367 L106.710606,259.104992 L113.659991,266.946664 C117.482152,271.303149 120.609376,275.136855 120.609376,275.659633 C120.609376,276.356671 125.995149,281.235933 132.42333,286.637974 C139.025245,292.040015 145.800895,299.358909 147.711976,302.669838 C149.449322,305.980766 151.360403,308.768916 152.055341,308.768916 C152.576545,308.768916 155.703768,305.109469 159.004726,300.578725 C162.131949,295.873722 167.343987,289.426124 170.471211,285.940937 C173.598434,282.455749 177.420595,277.053708 178.810472,273.74278 C181.590226,267.817961 181.590226,267.817961 180.547818,273.045742 C180.026614,276.008152 176.899391,284.024084 173.598434,290.994459 L167.691457,303.715394 L176.378188,298.836131 C187.844672,292.388534 199.832361,279.667599 202.090911,271.128889 C203.133319,267.295183 204.001992,260.150548 204.001992,254.922767 C204.001992,243.073128 205.739338,244.641463 208.345357,258.582214 C209.387765,264.507033 211.125111,269.560555 212.167519,269.909074 C214.773538,270.78037 229.019776,252.483135 234.579284,241.330535 C238.57518,233.314603 238.92265,230.874972 237.880242,222.162002 C235.274223,200.902358 222.244126,187.135866 206.434276,189.05272 C198.963688,189.749757 198.789953,189.749757 198.789953,184.696235 C198.789953,170.929744 178.115534,146.707689 166.30158,146.707689 C164.564234,146.707689 156.224972,151.064174 147.538241,156.117696 C127.906229,168.141594 103.757118,176.331785 86.0361869,177.377341 C75.2646406,178.074378 73.7010291,177.72586 77.1757214,176.157525 C96.1127946,167.793075 101.324833,164.656406 109.664095,156.640474 C114.876133,151.761212 124.257803,140.78287 130.338514,132.41842 C136.419226,124.05397 143.021141,116.386557 144.932222,115.341 C147.711976,113.772666 148.406914,111.681553 148.406914,104.1884 C148.406914,95.9982088 149.275587,93.3843181 156.398707,83.1030145 C175.162045,55.7442913 184.36998,29.9539025 182.806368,9.04277649 C181.937695,-2.80686158 183.501307,-2.98112097 187.323468,8.34573896 C194.620322,29.7796431 195.141526,66.0255949 188.539611,90.9446867 C184.196245,106.802291 183.848776,125.099526 187.670938,133.986754 C189.408284,138.517498 194.446588,143.919539 203.133319,150.541396 C210.082703,156.117696 216.684619,160.64844 217.727026,160.64844 C219.290638,160.64844 219.985576,157.686031 222.070392,144.965096 C222.244126,143.571021 224.502676,148.624543 227.108696,156.291956 C230.930857,167.618815 232.841938,170.929744 237.185303,173.543634 C246.393238,178.945675 266.720188,199.334023 275.580654,212.054958 C288.61075,230.700712 291.737973,242.72461 291.737973,275.311114 C291.737973,295.002425 292.259177,301.798541 293.822788,301.798541 C297.992419,301.798541 323.878877,292.911312 336.908973,286.986493 C344.379562,283.501305 350.634008,281.061674 350.981477,281.410193 C352.023885,282.455749 308.763965,310.51151 298.166154,315.390773 C290.000627,319.224479 285.483527,323.232445 277.491734,332.816711 C271.932227,339.438568 262.550557,350.591168 256.64358,357.387284 C246.914442,368.365625 245.6983,370.630997 245.6983,377.078594 C245.6983,385.965823 251.779011,397.118423 260.813211,404.437318 C264.287904,407.399727 266.720188,410.362137 266.02525,411.059174 C263.940434,412.976027 227.108696,408.445283 207.476684,403.74028 C197.400076,401.300649 179.679145,396.072867 168.038926,392.064901 L147.017037,384.746007 L130.512249,386.83712 C121.478049,387.882676 108.274218,391.019345 101.324833,393.458976 C81.8665561,400.429352 44.1661443,420.120662 20.1907672,435.978266 C8.37681323,443.645679 -0.657386832,449.04772 0.0375516344,447.827904 Z" id="Path"></path>
            </g>
            <g id="Group-2" transform="translate(220.3037, 225.2912) scale(-1, 1) translate(-220.3037, -225.2912)translate(167.8768, 132.6766)" fill="#2999A0" fill-opacity="0.6">
                <path d="M34.3798873,79.3991444 C36.1539409,72.067215 38.9587708,65.5805309 42.7943771,59.9390919 C52.7825449,45.2484183 53.107573,44.7978567 65.8630416,33.0934803 C81.6488022,18.608518 95.4992416,10.4493458 99.8768356,7.56041452 C104.25443,4.67148325 109.421284,-6.06540324 92.5053146,4.67148325 C75.5893454,15.4083697 64.9210098,25.5531971 58.926625,31.5104267 C52.9322402,37.4676563 45.1406634,44.1592428 38.3441818,59.9390919 C33.6815434,70.7646534 32.3601119,77.2513376 34.3798873,79.3991444 Z" id="Path-2"></path>
                <path d="M95.0186202,176.349706 C84.4843643,167.399938 77.5547748,162.659266 70.8570297,157.766347 C62.9063351,151.958108 52.4268697,144.84554 39.0340927,134.654599 C33.3180788,130.305124 31.8558303,129.084303 29.3593185,126.952543 C27.4049276,125.283697 24.6509861,123.157864 19.8271453,117.862699 C15.0033045,112.567534 11.2543124,109.007441 8.13605952,104.873403 C3.02875438,98.1023689 0.384863801,92.7145251 0.0281112139,93.8233997 C-0.254433188,94.7016171 1.60980677,98.6880924 4.85776972,104.107007 C8.10573267,109.525922 14.820408,115.715956 20.9246719,122.488515 C30.7728622,131.337209 32.6017146,132.625824 43.7438705,140.682355 C55.8270066,149.419278 54.4172013,148.645877 65.7024581,156.567128 C78.5413773,165.578914 88.5427182,173.858506 90.690953,175.225866 C92.8391878,176.593225 118.501516,196.300471 95.0186202,176.349706 Z" id="Path-3"></path>
            </g>
        </g>
    </g>
</svg>